<svg viewBox="0 0 128 128" xmlns="http://www.w3.org/2000/svg">
  <path d="M 66.556 5.759 C 66.705 5.758 66.852 5.757 67.004 5.756 C 67.477 5.754 67.95 5.753 68.423 5.753 C 68.503 5.753 68.583 5.753 68.667 5.753 C 71.086 5.752 73.468 5.79 75.866 6.131 C 76.086 6.159 76.086 6.159 76.309 6.189 C 84.223 7.249 91.854 9.851 98.737 13.909 C 98.831 13.963 98.924 14.018 99.02 14.076 C 100.397 14.888 101.728 15.768 103.033 16.694 C 103.16 16.785 103.16 16.785 103.291 16.878 C 103.702 17.175 104.051 17.428 104.302 17.878 C 104.368 17.991 104.368 17.991 104.437 18.107 C 104.648 18.534 104.686 18.901 104.701 19.372 C 104.706 19.495 104.713 19.619 104.718 19.747 C 104.532 21.062 103.586 21.913 102.688 22.804 C 102.545 22.947 102.403 23.09 102.261 23.233 C 101.876 23.62 101.49 24.005 101.102 24.39 C 100.697 24.795 100.292 25.2 99.889 25.606 C 99.209 26.286 98.529 26.965 97.847 27.643 C 97.062 28.427 96.278 29.211 95.496 29.998 C 94.821 30.674 94.147 31.349 93.47 32.023 C 93.067 32.425 92.665 32.827 92.263 33.231 C 91.886 33.61 91.506 33.989 91.126 34.365 C 90.987 34.502 90.849 34.642 90.713 34.781 C 88.886 36.621 88.886 36.621 87.578 36.64 C 86.572 36.598 85.776 36.1 84.922 35.618 C 81.004 33.445 76.722 32.073 72.269 31.555 C 72.18 31.544 72.092 31.532 72.001 31.522 C 63.533 30.6 54.553 33.095 47.872 38.389 C 47.723 38.51 47.574 38.631 47.425 38.753 C 47.322 38.835 47.322 38.835 47.218 38.919 C 46.777 39.281 46.343 39.651 45.916 40.03 C 45.854 40.084 45.792 40.137 45.729 40.193 C 44.199 41.552 42.851 43.04 41.62 44.673 C 41.566 44.743 41.513 44.813 41.458 44.886 C 40.711 45.866 40.037 46.869 39.424 47.938 C 39.301 48.151 39.174 48.363 39.046 48.575 C 36.115 53.524 34.745 59.395 34.741 65.112 C 34.741 65.215 34.741 65.318 34.741 65.423 C 34.748 71.536 36.452 77.563 39.597 82.812 C 40.007 83.521 40.011 84.435 39.812 85.221 C 39.248 86.473 37.971 87.464 37.012 88.426 C 36.878 88.56 36.746 88.695 36.613 88.829 C 36.179 89.265 35.746 89.7 35.313 90.136 C 35.161 90.287 35.011 90.438 34.862 90.588 C 34.236 91.216 33.611 91.844 32.986 92.47 C 32.094 93.364 31.202 94.26 30.312 95.155 C 29.684 95.789 29.054 96.42 28.424 97.053 C 28.048 97.427 27.672 97.805 27.299 98.182 C 26.948 98.537 26.594 98.891 26.24 99.243 C 26.112 99.372 25.983 99.502 25.854 99.632 C 25.048 100.451 24.267 101.191 23.1 101.399 C 22.138 101.378 21.494 101.259 20.786 100.591 C 14.386 93.836 10.961 82.886 9.601 73.573 C 9.59 73.493 9.577 73.415 9.566 73.333 C 9.179 70.655 9.071 67.99 9.079 65.286 C 9.079 65.125 9.079 64.966 9.079 64.806 C 9.084 62.45 9.133 60.126 9.463 57.792 C 9.474 57.709 9.486 57.627 9.497 57.544 C 11.028 46.428 15.502 35.899 22.698 27.258 C 22.746 27.201 22.794 27.142 22.844 27.082 C 24.079 25.595 25.393 24.195 26.761 22.832 C 26.966 22.628 27.17 22.423 27.374 22.218 C 28.04 21.552 28.709 20.901 29.431 20.293 C 29.548 20.191 29.665 20.089 29.783 19.989 C 38.282 12.709 48.787 7.972 66.556 5.759 Z" fill="#5064FE" style=""/>
  <path d="M 52.3 94.89 C 60.271 99.247 69.584 100.089 78.279 97.605 C 81.047 96.779 83.691 95.548 86.186 94.099 C 86.834 93.735 87.481 93.684 88.211 93.836 C 89.293 94.16 89.961 94.874 90.73 95.657 C 90.876 95.802 91.023 95.949 91.172 96.095 C 91.568 96.489 91.961 96.887 92.356 97.285 C 92.769 97.701 93.185 98.116 93.6 98.531 C 94.297 99.229 94.992 99.927 95.688 100.627 C 96.489 101.434 97.293 102.24 98.098 103.044 C 98.874 103.819 99.648 104.595 100.423 105.372 C 100.75 105.704 101.08 106.033 101.41 106.363 C 101.797 106.751 102.184 107.14 102.57 107.53 C 102.712 107.672 102.853 107.815 102.997 107.956 C 104.563 109.52 104.563 109.52 104.719 110.562 C 104.711 111.567 104.627 112.237 103.932 112.982 C 103.595 113.3 103.241 113.583 102.865 113.857 C 102.792 113.91 102.718 113.964 102.64 114.02 C 100.806 115.337 98.856 116.491 96.88 117.578 C 96.735 117.658 96.735 117.658 96.586 117.74 C 88.778 122.019 79.514 124.65 70.565 124.683 C 70.418 124.684 70.27 124.685 70.119 124.686 C 69.646 124.688 69.172 124.689 68.699 124.689 C 68.577 124.689 68.577 124.689 68.454 124.689 C 65.993 124.689 63.564 124.656 61.124 124.311 C 61.042 124.3 60.959 124.289 60.875 124.277 C 56.998 123.743 53.227 122.887 49.514 121.641 C 49.392 121.6 49.269 121.559 49.143 121.518 C 44.369 119.909 39.84 117.646 35.649 114.857 C 35.582 114.813 35.516 114.769 35.45 114.724 C 32.654 112.86 32.654 112.86 32.332 111.542 C 32.22 110.708 32.358 110.049 32.798 109.336 C 33.535 108.434 34.379 107.618 35.201 106.794 C 35.335 106.66 35.469 106.527 35.602 106.392 C 36.035 105.956 36.47 105.521 36.904 105.085 C 37.054 104.935 37.205 104.783 37.355 104.633 C 38.061 103.924 38.766 103.217 39.473 102.509 C 40.287 101.695 41.098 100.88 41.909 100.065 C 42.539 99.432 43.169 98.8 43.8 98.168 C 44.175 97.793 44.552 97.416 44.925 97.039 C 45.277 96.684 45.63 96.331 45.985 95.978 C 46.114 95.849 46.242 95.719 46.371 95.59 C 48.436 93.5 49.802 93.493 52.3 94.89 Z" fill="#1F0155" style=""/>
  <path d="M 78.769 51.523 C 78.876 51.604 78.983 51.686 79.095 51.771 C 81.81 53.91 83.765 56.756 84.836 60.04 C 84.862 60.122 84.89 60.205 84.918 60.289 C 85.41 61.878 85.568 63.479 85.553 65.133 C 85.553 65.265 85.553 65.265 85.553 65.401 C 85.544 66.854 85.429 68.227 85.038 69.632 C 85.016 69.717 84.994 69.804 84.971 69.891 C 84.401 72.019 83.326 74.106 81.904 75.785 C 81.798 75.917 81.692 76.048 81.587 76.18 C 78.922 79.457 74.902 81.651 70.701 82.148 C 70.011 82.202 69.318 82.199 68.625 82.199 C 68.501 82.199 68.501 82.199 68.374 82.2 C 67.09 82.198 65.856 82.135 64.607 81.821 C 64.526 81.803 64.446 81.783 64.364 81.764 C 61.832 81.137 59.496 79.931 57.524 78.224 C 57.383 78.102 57.383 78.102 57.237 77.979 C 53.832 75.006 51.838 70.876 51.488 66.382 C 51.25 61.812 52.648 57.42 55.667 53.96 C 55.738 53.875 55.808 53.791 55.88 53.704 C 56.347 53.152 56.853 52.68 57.408 52.218 C 57.489 52.148 57.57 52.078 57.652 52.006 C 63.52 47.055 72.693 46.766 78.769 51.523 Z" fill="#1F0155" style=""/>
</svg>