<?xml version="1.0" encoding="UTF-8" standalone="no" ?>
<!DOCTYPE svg PUBLIC "-//W3C//DTD SVG 1.1//EN" "http://www.w3.org/Graphics/SVG/1.1/DTD/svg11.dtd">
<svg xmlns="http://www.w3.org/2000/svg" xmlns:xlink="http://www.w3.org/1999/xlink" version="1.1" width="128" height="128" viewBox="0 0 128 128" xml:space="preserve">
<desc>Created with Fabric.js 3.6.6</desc>
<defs>
</defs>
<g transform="matrix(0.22 0 0 0.17 63.72 62.55)"  >
<path style="stroke: none; stroke-width: 1; stroke-dasharray: none; stroke-linecap: butt; stroke-dashoffset: 0; stroke-linejoin: miter; stroke-miterlimit: 4; fill: rgb(0,0,0); fill-rule: nonzero; opacity: 1;"  transform=" translate(-256, -88.31)" d="M 74.9966962 9.40490258 L 109.449853 9.40490258 L 109.449853 124.325477 C 109.703598 134.016906 107.251233 143.587261 102.368012 151.962362 C 97.6198179 159.753429 90.7552584 166.034685 82.5742661 170.07417 C 73.4273937 174.499068 63.3608148 176.689565 53.2023305 176.465532 C 43.9306106 176.596862 34.7339046 174.787674 26.2028117 171.154151 C 18.3770871 167.799903 11.7225947 162.199039 7.081841 155.060667 C 2.36061367 147.872599 0 138.807842 0 127.866398 L 34.6833163 127.866398 C 34.7895439 134.399396 36.6839364 139.498322 40.3664937 143.110061 C 44.29049 146.837616 49.5665825 148.800962 54.9727908 148.545374 C 68.2158335 148.545374 74.8904686 140.472075 74.9966962 124.325477 L 74.9966962 9.40490258 Z M 185.898326 176.624951 C 173.398877 176.624951 162.604971 173.95738 153.516608 168.622393 C 144.483389 163.355303 137.171226 155.581902 132.465836 146.243775 C 127.348699 135.883545 124.809859 124.440542 125.065312 112.888304 C 124.800211 101.284038 127.338886 89.7871201 132.465836 79.3734917 C 137.176254 70.0388865 144.48721 62.2667678 153.516608 56.9948741 C 163.393404 51.4612147 174.580867 48.6964617 185.898326 48.9923938 C 197.221183 48.6985306 208.413806 51.4630474 218.297749 56.9948741 C 227.32251 62.2670443 234.627677 70.0395453 239.330817 79.3734917 C 244.46322 89.7858231 247.007949 101.282651 246.749045 112.888304 C 246.999002 124.442 244.454072 135.885078 239.330817 146.243775 C 234.632713 155.581245 227.326338 163.355031 218.297749 168.622393 C 209.197583 173.969183 198.397776 176.636676 185.898326 176.624951 Z M 225.096316 9.40490258 L 225.096316 27.9947352 L 146.718041 27.9947352 L 146.718041 9.40490258 L 225.096316 9.40490258 Z M 186.146191 150.06797 C 193.856565 150.384283 201.115591 146.496148 205.131439 139.941762 L 205.426503 139.445208 C 209.793638 132.363367 211.977206 123.434346 211.977206 112.658144 C 211.977206 102.24115 209.920239 93.5336983 205.806306 86.5357903 L 205.373389 85.817967 C 201.425146 78.964062 193.99621 74.8709843 186.093077 75.1952055 C 178.324851 74.865608 170.999518 78.7525105 166.911332 85.3317746 L 166.618014 85.817967 C 162.21547 92.899808 160.014197 101.846534 160.014197 112.658144 C 160.014197 123.109368 162.071164 131.801416 166.185097 138.73429 L 166.618014 139.445208 C 170.541161 146.136791 177.750838 150.187427 185.47726 150.083572 L 186.146191 150.06797 Z M 329.836745 50.6035126 L 329.836745 76.3637093 L 306.572897 76.3637093 L 306.572897 136.311493 C 306.572897 141.032721 307.646976 144.219549 309.795135 145.871979 C 312.073102 147.515507 314.809409 148.391473 317.608808 148.382052 L 318.169412 148.368328 C 319.784878 148.370363 321.397034 148.222187 322.985064 147.925713 L 326.685325 147.252938 L 331.996706 172.76527 L 330.675485 173.149517 C 329.098913 173.594348 327.152455 174.097201 324.755524 174.641958 C 321.43779 175.353142 318.066789 175.783453 314.678305 175.928704 L 313.406874 175.969803 C 300.954637 176.524547 290.963339 173.833448 283.432982 167.896504 C 276.073768 162.094491 272.361261 153.316496 272.295461 141.562518 L 272.296787 76.3637093 L 255.388891 76.3637093 L 255.388891 50.6035126 L 272.296787 50.6035126 L 272.296787 20.9837126 L 306.572897 20.9837126 L 306.572897 50.6035126 L 329.836745 50.6035126 Z M 382.419414 176.554055 C 370.616346 176.554055 360.825701 173.467552 353.047479 167.294548 C 345.269257 161.121543 341.380146 151.921051 341.380146 139.693072 C 341.380146 130.474876 343.55191 123.233694 347.895439 117.969525 C 352.403015 112.5923 358.328242 108.586945 364.998085 106.40842 C 372.356774 103.91 379.989076 102.305076 387.730795 101.628177 C 395.469462 101.014153 403.158535 99.884451 410.746778 98.246598 C 415.373581 97.0662911 417.681081 94.4932222 417.669278 90.5273913 L 417.669278 90.0316624 C 417.928209 85.5723581 416.173848 81.2319405 412.889035 78.2049879 C 409.678601 75.4312669 405.158025 74.0385048 399.32731 74.0267017 C 394.113566 73.7545436 388.950162 75.1633088 384.59708 78.0456465 C 381.095206 80.5316139 378.541926 84.1336732 377.355898 88.2612021 L 345.646955 85.6940348 C 347.761408 74.7977599 354.076028 65.1700305 363.227625 58.8892666 C 372.599261 52.3031545 384.685603 49.0041969 399.486651 48.9923938 C 408.25648 48.9235032 416.970072 50.3977422 425.229143 53.347726 C 432.830117 55.9611937 439.542228 60.6608988 444.597978 66.9094515 C 449.508055 73.0588501 451.963093 81.0377243 451.963093 90.8460741 L 451.963093 174.217047 L 419.457443 174.217047 L 419.457443 157.078992 L 418.501394 157.078992 C 415.390976 162.917665 410.720553 167.778091 405.010487 171.118742 C 399.026331 174.742284 391.495974 176.554055 382.419414 176.554055 Z M 392.227764 152.883001 C 399.011128 153.146608 405.637907 150.802528 410.746778 146.332298 C 415.286978 142.37231 417.914361 136.670726 417.989336 130.666239 L 417.987961 116.924954 C 416.059096 118.068791 413.952804 118.882586 411.755941 119.33278 C 408.923204 120.023259 405.931126 120.625216 402.726593 121.10324 L 399.64337 121.57733 C 397.667011 121.888144 395.845404 122.183221 394.157566 122.431085 C 388.9935 122.99273 384.02698 124.731012 379.639792 127.512306 C 375.998457 129.961911 373.908544 134.141738 374.13366 138.524569 C 373.913856 142.702671 375.835203 146.705478 379.232586 149.14733 C 382.859213 151.586342 387.125366 152.887358 391.485506 152.892913 L 392.227764 152.883001 Z M 494.018216 34.6706476 L 493.409567 34.6693704 C 488.556046 34.7486865 483.867193 32.9100452 480.361275 29.5527402 C 476.846068 26.4488602 474.850208 21.9727069 474.890553 17.2834507 C 474.851108 12.6045548 476.847719 8.13964187 480.361275 5.04957036 C 487.78451 -1.68319012 499.105443 -1.68319012 506.528678 5.04957036 C 510.042235 8.13964187 512.038845 12.6045548 511.9994 17.2834507 C 512.038131 21.7851366 510.200296 26.0904269 506.943177 29.1737619 L 506.528678 29.5527402 C 503.148005 32.7805159 498.676932 34.6038472 494.018216 34.6706476 L 494.018216 34.6706476 Z M 476.253807 174.217047 L 476.253807 50.6035126 L 510.529918 50.6035126 L 510.529918 174.217047 L 476.253807 174.217047 Z" stroke-linecap="round" />
</g>
</svg>