<?xml version="1.0" encoding="UTF-8" standalone="no" ?>
<!DOCTYPE svg PUBLIC "-//W3C//DTD SVG 1.1//EN" "http://www.w3.org/Graphics/SVG/1.1/DTD/svg11.dtd">
<svg xmlns="http://www.w3.org/2000/svg" xmlns:xlink="http://www.w3.org/1999/xlink" version="1.1" width="128" height="128" viewBox="0 0 128 128" xml:space="preserve">
<desc>Created with Fabric.js 3.6.6</desc>
<defs>
</defs>
<g transform="matrix(2.47 0 0 2.47 64.64 64.86)"  >
<path style="stroke: none; stroke-width: 1; stroke-dasharray: none; stroke-linecap: butt; stroke-dashoffset: 0; stroke-linejoin: miter; stroke-miterlimit: 4; fill: rgb(0,0,0); fill-rule: nonzero; opacity: 1;"  transform=" translate(-24.15, -24.5)" d="M 44.674 37.568 L 27.405 1.49 c -0.89 -1.859 -3.473 -2.012 -4.575 -0.271 L 3.679 31.461 c -0.413 0.652 -0.401 1.486 0.03 2.126 l 9.647 14.323 c 0.599 0.889 1.7 1.29 2.729 0.994 l 26.994 -7.775 C 44.596 40.692 45.357 38.994 44.674 37.568 z M 40.86 38.865 l -22.703 6.369 c -0.526 0.148 -1.02 -0.318 -0.906 -0.853 L 25.3 6.749 c 0.145 -0.678 1.064 -0.788 1.364 -0.163 l 14.843 30.881 C 41.766 38.033 41.459 38.697 40.86 38.865 z" stroke-linecap="round" />
</g>
</svg>