<svg viewBox="0 0 128 128" xmlns="http://www.w3.org/2000/svg">
  <path d="M 95.787 59.969 L 116.645 72.007 L 116.645 96.105 L 95.787 108.148 L 86.529 102.793 L 64.013 115.789 L 41.632 102.868 L 32.503 108.148 L 11.645 96.085 L 11.645 72.007 L 32.503 59.969 L 53.36 72.007 L 53.36 96.085 L 47.051 99.734 L 64.013 109.528 L 81.111 99.66 L 74.93 96.085 L 74.93 72.007 L 95.787 59.969 Z M 80.35 78.284 L 80.35 92.982 L 93.077 100.326 L 93.077 85.629 L 80.35 78.284 Z M 111.224 78.261 L 98.497 85.607 L 98.497 100.326 L 111.224 92.961 L 111.224 78.261 Z M 17.065 78.261 L 17.065 92.961 L 29.792 100.306 L 29.792 85.607 L 17.065 78.261 Z M 47.938 78.261 L 35.214 85.607 L 35.214 100.306 L 47.938 92.961 L 47.938 78.261 Z M 95.787 66.241 L 83.061 73.589 L 95.787 80.938 L 108.514 73.589 L 95.787 66.241 Z M 32.503 66.222 L 19.777 73.589 L 32.503 80.918 L 45.228 73.589 L 32.503 66.222 Z M 42.878 28.871 L 42.878 35.124 L 23.577 46.272 L 23.577 65.117 L 18.156 68.247 L 18.156 43.14 L 42.878 28.871 Z M 63.737 9.889 L 84.606 21.93 L 84.606 28.552 L 109.867 43.14 L 109.867 68.09 L 104.447 64.962 L 104.447 46.272 L 84.606 34.814 L 84.606 46.013 L 63.748 58.057 L 42.893 46.013 L 42.893 21.93 L 63.737 9.889 Z M 48.312 28.187 L 48.312 42.884 L 61.024 50.228 L 61.024 35.538 L 48.312 28.187 Z M 79.173 28.187 L 66.459 35.538 L 66.459 50.222 L 79.173 42.884 L 79.173 28.187 Z M 63.737 16.151 L 51.023 23.497 L 63.737 30.841 L 76.461 23.497 L 63.737 16.151 Z" fill="#398CCB" style="" transform="matrix(1, 0, 0, 1, 0, 3.552713678800501e-15)"/>
</svg>