<?xml version="1.0" encoding="UTF-8"?>
<svg xmlns="http://www.w3.org/2000/svg" xmlns:xlink="http://www.w3.org/1999/xlink" viewBox="0 0 128 128" version="1.1">
<path fill-rule="nonzero" fill="#386f9f" d="M 40.675781 32.980469 C 46.925781 32.980469 53.175781 33.074219 59.414062 32.917969 C 61.070312 32.875 64.039062 34.191406 63.90625 30.882812 C 63.804688 28.1875 61.207031 29.160156 59.636719 29.136719 C 52.585938 29.03125 45.511719 28.773438 38.492188 29.195312 C 33.496094 29.496094 32.023438 27.671875 32.648438 23.261719 C 32.867188 21.738281 32.660156 20.164062 32.691406 18.613281 C 32.910156 8.292969 35.503906 4.777344 45.90625 2.230469 C 57.367188 -0.570312 69.09375 -0.476562 80.523438 1.9375 C 90.796875 4.109375 95.0625 11.800781 94.542969 18.917969 C 93.910156 27.601562 94.402344 36.363281 94.390625 45.089844 C 94.378906 56.0625 88.484375 61.886719 76.992188 62.039062 C 67.523438 62.164062 58.046875 62.265625 48.585938 62.011719 C 37.308594 61.707031 29.035156 70.722656 28.976562 80.9375 C 28.976562 81.714844 29.117188 82.515625 28.957031 83.261719 C 28.144531 87.015625 31.390625 93.078125 27.257812 94.195312 C 20.96875 95.894531 13.605469 95.894531 8.054688 90.492188 C 6.175781 88.667969 4.59375 86.621094 3.757812 84.257812 C -0.699219 71.664062 -1.402344 58.910156 2.792969 46.117188 C 5.40625 38.132812 12.523438 33.167969 21.335938 33.023438 C 27.78125 32.921875 34.226562 33.003906 40.671875 33.003906 Z M 52.160156 15.175781 C 51.890625 12.125 50.1875 9.902344 46.675781 9.808594 C 42.835938 9.714844 40.847656 11.949219 40.84375 15.585938 C 40.839844 18.960938 42.75 21.121094 46.238281 21.21875 C 50.066406 21.324219 51.921875 19.039062 52.160156 15.175781 Z M 52.160156 15.175781 "/>
<path fill-rule="nonzero" fill="#ffcf46" d="M 88.910156 94.722656 C 81.855469 94.722656 74.796875 94.664062 67.742188 94.769531 C 66.152344 94.789062 63.488281 93.820312 63.40625 96.4375 C 63.3125 99.402344 66.171875 98.632812 67.988281 98.648438 C 75.042969 98.734375 82.105469 98.804688 89.15625 98.617188 C 92.78125 98.519531 94.257812 99.1875 94.53125 103.300781 C 95.757812 121.917969 87.363281 123.527344 71.882812 126.914062 C 63 128.855469 53.480469 127.824219 44.722656 124.050781 C 37.480469 120.929688 33.035156 116.4375 33.59375 108.023438 C 34.152344 99.71875 34.246094 91.308594 33.582031 83.011719 C 32.78125 72.996094 39.253906 65.632812 51.839844 65.628906 C 60.308594 65.628906 68.832031 65.007812 77.230469 65.75 C 89.234375 66.808594 98.644531 56.796875 99.058594 45.148438 C 99.074219 44.765625 98.972656 44.347656 99.074219 43.992188 C 100.132812 40.410156 96.367188 35.089844 101.402344 33.285156 C 109.011719 30.554688 117.59375 33.421875 121.480469 38.980469 C 126.378906 45.976562 127.039062 54.207031 127.832031 62.246094 C 128.6875 70.914062 126.164062 79.070312 122.382812 86.886719 C 119.8125 92.1875 115.492188 94.75 109.476562 94.757812 C 102.621094 94.761719 95.769531 94.757812 88.914062 94.757812 C 88.910156 94.746094 88.910156 94.734375 88.910156 94.722656 Z M 87.070312 112.015625 C 86.316406 108.707031 84.769531 106.449219 80.773438 106.355469 C 76.621094 106.261719 75.550781 109.25 75.570312 111.917969 C 75.59375 114.757812 76.417969 118.246094 80.914062 117.921875 C 84.648438 117.644531 86.472656 115.417969 87.070312 112.015625 Z M 87.070312 112.015625 "/>

</svg>
